<?xml version="1.0" standalone="no"?>
<!DOCTYPE svg PUBLIC "-//W3C//DTD SVG 20010904//EN"
 "http://www.w3.org/TR/2001/REC-SVG-20010904/DTD/svg10.dtd">
<svg version="1.0" xmlns="http://www.w3.org/2000/svg"
 width="2000.000000pt" height="2000.000000pt" viewBox="0 0 2000.000000 2000.000000"
 preserveAspectRatio="xMidYMid meet">
<metadata>
Created by potrace 1.14, written by Peter Selinger 2001-2017
</metadata>
<g transform="translate(0.000000,2000.000000) scale(0.100000,-0.100000)"
fill="#000000" stroke="none">
<path d="M1949 19986 c-2 -2 -38 -7 -79 -10 -59 -6 -253 -43 -305 -60 -5 -1
-23 -6 -40 -10 -16 -4 -39 -11 -50 -16 -11 -4 -49 -18 -85 -30 -169 -58 -394
-183 -555 -307 -375 -289 -664 -729 -770 -1173 -29 -123 -32 -137 -40 -201 -4
-30 -11 -81 -15 -114 -11 -80 -11 -16039 0 -16135 30 -266 93 -485 205 -715
78 -158 134 -253 191 -325 7 -8 40 -50 74 -93 112 -142 289 -306 450 -415 299
-202 597 -312 985 -361 69 -9 397 -7 465 3 350 49 657 162 926 342 133 89 219
160 336 277 128 128 188 207 413 542 287 427 527 782 650 965 61 91 195 289
297 440 522 775 691 1026 943 1400 72 107 212 314 310 460 547 813 802 1190
946 1403 63 93 119 177 125 188 6 10 18 27 27 37 10 10 17 23 17 29 0 6 3 13
8 15 4 2 46 62 94 133 47 72 177 265 288 430 425 629 408 603 428 680 49 187
-43 395 -220 498 -100 58 -248 72 -356 33 -49 -18 -131 -71 -183 -118 -19 -18
-64 -58 -100 -88 -35 -30 -69 -59 -75 -65 -40 -36 -142 -123 -163 -140 -14
-11 -33 -27 -41 -35 -9 -8 -44 -40 -79 -70 -36 -30 -105 -90 -155 -134 -136
-118 -204 -176 -260 -225 -28 -24 -78 -67 -111 -96 -95 -82 -370 -320 -480
-414 -55 -47 -116 -100 -135 -117 -38 -34 -181 -158 -269 -233 -30 -25 -62
-53 -71 -61 -8 -8 -45 -40 -80 -70 -36 -30 -67 -57 -70 -60 -3 -3 -36 -32 -75
-65 -38 -33 -83 -72 -100 -87 -33 -29 -47 -41 -125 -108 -29 -25 -58 -50 -64
-55 -6 -6 -40 -35 -75 -65 -36 -30 -72 -62 -81 -70 -28 -25 -78 -69 -260 -225
-96 -82 -177 -152 -180 -155 -3 -3 -70 -62 -150 -130 -80 -69 -147 -127 -150
-130 -3 -3 -70 -61 -150 -130 -80 -68 -147 -127 -150 -130 -3 -3 -36 -32 -75
-65 -38 -33 -72 -62 -75 -65 -40 -42 -302 -256 -326 -266 -73 -31 -155 -2
-194 69 l-24 42 -1 5600 c0 3097 3 5616 8 5636 22 93 136 147 228 107 20 -8
94 -88 202 -218 94 -113 181 -216 193 -230 12 -14 95 -113 184 -220 89 -107
179 -215 200 -240 84 -100 335 -401 400 -480 25 -30 50 -59 56 -65 6 -5 53
-62 105 -125 51 -63 96 -117 99 -120 3 -3 143 -169 310 -370 167 -201 408
-489 534 -640 127 -151 286 -342 355 -425 68 -82 129 -154 135 -160 6 -5 23
-26 37 -45 15 -19 35 -44 46 -55 10 -11 28 -32 39 -47 12 -15 41 -51 66 -80
25 -29 121 -143 213 -253 91 -110 174 -209 183 -220 9 -11 37 -45 62 -75 25
-30 48 -57 51 -60 3 -3 64 -75 134 -160 71 -85 132 -157 135 -160 3 -3 21 -25
41 -50 20 -25 45 -55 55 -67 11 -12 33 -39 50 -60 64 -77 249 -298 254 -303 3
-3 25 -30 50 -60 25 -30 47 -57 50 -60 3 -3 25 -30 50 -60 25 -30 47 -57 50
-60 3 -3 95 -113 205 -245 183 -219 360 -431 455 -545 21 -25 64 -76 97 -115
32 -38 66 -79 75 -90 9 -11 69 -83 133 -160 65 -77 127 -151 139 -165 11 -14
54 -66 95 -115 41 -50 80 -94 85 -100 6 -5 29 -32 51 -60 21 -27 66 -82 100
-121 33 -39 69 -82 79 -95 11 -13 46 -55 79 -94 32 -38 66 -79 76 -90 30 -38
115 -140 121 -145 3 -3 25 -30 50 -60 63 -77 73 -89 116 -140 22 -25 55 -65
74 -89 19 -24 40 -48 46 -55 5 -6 72 -85 148 -176 75 -91 154 -185 175 -210
69 -82 561 -671 760 -910 108 -129 198 -237 201 -240 3 -3 61 -72 130 -155 68
-82 126 -152 129 -155 4 -3 24 -27 46 -55 22 -27 48 -59 58 -70 10 -11 33 -37
50 -59 29 -35 97 -116 256 -306 29 -36 72 -87 95 -114 23 -27 68 -82 101 -121
33 -39 76 -91 97 -116 20 -24 50 -60 66 -79 17 -19 68 -80 114 -136 45 -55
117 -141 158 -190 41 -49 82 -98 91 -109 41 -49 153 -182 173 -205 11 -14 39
-47 61 -75 22 -27 43 -52 46 -55 3 -3 110 -131 239 -285 128 -154 247 -296
264 -316 17 -19 46 -54 64 -77 19 -22 41 -50 50 -60 10 -11 35 -41 57 -68 72
-86 316 -378 338 -404 12 -14 88 -105 170 -203 82 -99 157 -189 167 -200 10
-12 46 -56 81 -97 34 -41 73 -88 88 -105 14 -16 57 -68 96 -115 38 -47 72 -87
75 -90 3 -3 25 -30 50 -60 25 -30 47 -57 50 -60 3 -3 37 -43 75 -90 38 -47 72
-87 75 -90 3 -3 95 -113 205 -245 110 -132 202 -242 205 -245 3 -3 141 -168
307 -366 165 -199 310 -372 321 -385 11 -13 59 -71 108 -129 133 -160 285
-308 390 -380 252 -174 481 -281 734 -345 52 -13 112 -26 133 -29 20 -3 52 -8
70 -11 125 -20 218 -23 582 -21 226 2 421 6 435 9 14 3 43 8 65 11 200 30 486
119 626 195 8 5 40 22 70 37 57 29 60 31 179 110 290 191 542 476 703 795 76
150 86 175 130 309 45 138 67 228 83 347 3 26 9 57 13 68 3 11 7 3643 7 8070
2 8822 7 8134 -57 8395 -49 200 -137 416 -237 585 -204 345 -519 639 -877 818
-128 64 -277 122 -379 148 -241 61 -345 74 -581 74 -174 0 -247 -6 -395 -31
-102 -18 -277 -64 -340 -91 -8 -3 -17 -7 -20 -8 -5 -2 -32 -12 -65 -24 -11 -5
-76 -35 -145 -69 -208 -101 -388 -229 -551 -392 -89 -89 -187 -199 -203 -228
-5 -9 -12 -19 -16 -22 -3 -3 -127 -185 -275 -405 -148 -220 -314 -467 -370
-550 -56 -82 -200 -296 -320 -475 -120 -179 -273 -406 -340 -505 -67 -99 -220
-326 -340 -505 -120 -179 -232 -345 -249 -370 -17 -25 -35 -52 -41 -61 -21
-34 -170 -254 -175 -259 -3 -3 -75 -108 -159 -235 -189 -282 -418 -621 -606
-900 -78 -115 -213 -316 -300 -445 -343 -509 -615 -913 -728 -1080 -414 -614
-428 -635 -443 -713 -23 -111 1 -232 62 -322 50 -74 65 -90 130 -135 130 -91
291 -104 431 -35 40 20 78 42 85 49 13 13 96 85 247 214 47 41 104 90 126 110
22 21 69 62 105 92 56 47 81 69 154 135 6 6 40 35 76 65 36 30 67 57 70 60 3
3 57 51 120 105 63 55 117 102 120 105 3 3 37 32 75 65 39 33 75 64 81 70 21
19 140 123 299 261 88 76 165 143 171 149 6 5 37 33 69 60 32 28 63 55 69 60
6 6 40 35 76 65 36 30 70 60 75 66 6 5 44 39 85 75 41 35 80 69 86 74 13 12
112 98 179 155 28 24 52 46 55 49 3 3 34 31 70 61 36 30 67 57 70 60 3 3 39
34 80 70 41 36 84 73 95 83 11 10 37 33 59 50 21 18 50 43 65 57 14 14 55 50
91 81 81 69 464 402 507 440 18 16 101 89 185 161 184 160 208 180 222 193 16
15 226 198 259 226 16 13 45 39 65 57 52 47 98 64 155 59 52 -5 95 -36 124
-91 13 -25 15 -668 15 -5652 l0 -5624 -22 -44 c-36 -75 -143 -111 -218 -72
-16 8 -76 71 -132 138 -56 68 -112 134 -124 148 -11 14 -54 66 -95 115 -41 50
-80 95 -86 100 -6 6 -17 19 -25 31 -8 11 -36 45 -61 75 -26 30 -97 115 -159
189 -62 74 -122 146 -134 160 -11 14 -55 66 -96 115 -41 50 -77 92 -80 95 -3
3 -25 30 -50 60 -25 30 -47 57 -50 60 -3 3 -37 43 -75 90 -38 47 -72 87 -75
90 -3 3 -50 59 -105 125 -54 66 -101 122 -105 125 -3 3 -82 97 -175 210 -93
113 -174 210 -180 216 -5 6 -28 33 -50 59 -22 27 -125 150 -229 274 -233 279
-223 267 -455 546 -106 127 -202 241 -214 255 -12 14 -65 77 -117 140 -52 63
-97 117 -100 120 -5 4 -63 74 -171 205 -9 11 -55 65 -101 120 -46 55 -290 348
-543 650 -463 554 -645 772 -715 855 -21 25 -113 135 -205 245 -91 110 -183
220 -204 245 -34 40 -286 343 -329 395 -31 38 -127 150 -132 155 -5 5 -77 92
-110 133 -8 11 -20 24 -25 31 -6 6 -44 52 -85 101 -41 50 -77 92 -80 95 -3 3
-35 41 -70 85 -36 44 -68 82 -71 85 -3 3 -111 131 -239 285 -128 154 -247 296
-264 316 -17 20 -38 44 -46 55 -27 34 -274 329 -280 334 -3 3 -59 70 -125 150
-118 143 -150 182 -170 204 -5 6 -32 38 -60 71 -27 33 -52 62 -55 65 -4 3 -13
14 -21 26 -8 12 -32 42 -54 67 -22 24 -47 53 -55 63 -45 56 -107 130 -117 142
-7 7 -29 34 -50 60 -21 26 -40 49 -43 52 -3 3 -41 48 -85 100 -44 52 -82 97
-85 100 -3 3 -23 28 -45 55 -21 28 -49 61 -62 75 -12 14 -108 129 -213 255
-206 247 -253 303 -314 374 -21 25 -45 55 -55 66 -9 11 -119 144 -246 295
-126 151 -366 439 -534 640 -167 201 -318 381 -335 401 -17 19 -40 46 -51 60
-78 95 -113 138 -136 164 -15 16 -66 77 -113 135 -48 58 -95 114 -105 125 -9
11 -131 157 -271 325 -140 168 -264 316 -275 329 -11 13 -25 29 -30 35 -6 6
-143 171 -306 366 -304 365 -667 800 -697 835 -10 11 -66 79 -126 150 -59 72
-117 141 -128 154 -26 31 -532 636 -736 881 -210 251 -290 338 -402 432 -279
234 -609 391 -960 453 -150 26 -272 33 -621 34 -207 0 -378 -2 -380 -3z"/>
</g>
</svg>
